<svg width="26" height="26" viewBox="0 0 26 26" fill="none" xmlns="http://www.w3.org/2000/svg">
<path fill-rule="evenodd" clip-rule="evenodd" d="M12.6202 8.125C12.4908 8.12497 12.3656 8.1713 12.2674 8.25558C12.1691 8.33986 12.1043 8.45653 12.0847 8.58447C12.065 8.7124 12.0919 8.84314 12.1603 8.95301C12.2287 9.06288 12.3342 9.14461 12.4577 9.18342V9.69367C12.0893 9.76586 11.739 9.91098 11.4274 10.1205L11.1111 9.80417C11.2094 9.70154 11.2634 9.56441 11.2615 9.42232C11.2596 9.28024 11.202 9.14459 11.101 9.04461C11 8.94463 10.8638 8.88833 10.7217 8.88785C10.5796 8.88737 10.443 8.94275 10.3414 9.04204L9.58306 9.80038C9.48376 9.90202 9.42839 10.0386 9.42887 10.1807C9.42935 10.3228 9.48565 10.459 9.58562 10.56C9.6856 10.661 9.82125 10.7186 9.96334 10.7205C10.1054 10.7224 10.2426 10.6684 10.3452 10.5701L10.6615 10.8864C10.452 11.198 10.3069 11.5482 10.2347 11.9167H9.72443C9.68563 11.7932 9.60389 11.6877 9.49402 11.6193C9.38415 11.5508 9.25342 11.524 9.12548 11.5437C8.99755 11.5633 8.88088 11.6281 8.7966 11.7263C8.71231 11.8246 8.66599 11.9497 8.66602 12.0792V12.8375C8.66599 12.9669 8.71231 13.0921 8.7966 13.1903C8.88088 13.2886 8.99755 13.3534 9.12548 13.373C9.25342 13.3926 9.38415 13.3658 9.49402 13.2974C9.60389 13.229 9.68563 13.1235 9.72443 13H10.2347C10.3069 13.3684 10.452 13.7187 10.6615 14.0303L10.3452 14.3466C10.2426 14.2483 10.1054 14.1943 9.96334 14.1962C9.82125 14.1981 9.6856 14.2557 9.58562 14.3567C9.48565 14.4576 9.42935 14.5939 9.42887 14.736C9.42839 14.8781 9.48376 15.0146 9.58306 15.1163L10.3414 15.8746C10.443 15.9739 10.5796 16.0293 10.7217 16.0288C10.8638 16.0283 11 15.972 11.101 15.8721C11.202 15.7721 11.2596 15.6364 11.2615 15.4943C11.2634 15.3523 11.2094 15.2151 11.1111 15.1125L11.4274 14.7962C11.739 15.0057 12.0893 15.1508 12.4577 15.223V15.7333C12.3342 15.7721 12.2287 15.8538 12.1603 15.9637C12.0919 16.0735 12.065 16.2043 12.0847 16.3322C12.1043 16.4601 12.1691 16.5768 12.2674 16.6611C12.3656 16.7454 12.4908 16.7917 12.6202 16.7917H13.3785C13.5079 16.7917 13.6331 16.7454 13.7313 16.6611C13.8296 16.5768 13.8944 16.4601 13.914 16.3322C13.9337 16.2043 13.9068 16.0735 13.8384 15.9637C13.77 15.8538 13.6645 15.7721 13.541 15.7333V15.223C13.9992 15.1332 14.4279 14.9308 14.7885 14.6342L15.2668 15.1125C15.1685 15.2151 15.1145 15.3523 15.1163 15.4943C15.1182 15.6364 15.1759 15.7721 15.2769 15.8721C15.3778 15.972 15.514 16.0283 15.6561 16.0288C15.7982 16.0293 15.9348 15.9739 16.0365 15.8746L16.7948 15.1163C16.8941 15.0146 16.9495 14.8781 16.949 14.736C16.9485 14.5939 16.8922 14.4576 16.7922 14.3567C16.6923 14.2557 16.5566 14.1981 16.4145 14.1962C16.2724 14.1943 16.1353 14.2483 16.0327 14.3466L15.4802 13.7941C15.6123 13.5487 15.7093 13.2817 15.764 13H16.2743C16.3131 13.1235 16.3948 13.229 16.5047 13.2974C16.6145 13.3658 16.7453 13.3926 16.8732 13.373C17.0011 13.3534 17.1178 13.2886 17.2021 13.1903C17.2864 13.0921 17.3327 12.9669 17.3327 12.8375V12.0792C17.3327 11.9497 17.2864 11.8246 17.2021 11.7263C17.1178 11.6281 17.0011 11.5633 16.8732 11.5437C16.7453 11.524 16.6145 11.5508 16.5047 11.6193C16.3948 11.6877 16.3131 11.7932 16.2743 11.9167H15.764C15.6918 11.5482 15.5467 11.198 15.3372 10.8864L15.6535 10.5701C15.7561 10.6684 15.8933 10.7224 16.0354 10.7205C16.1774 10.7186 16.3131 10.661 16.4131 10.56C16.5131 10.459 16.5694 10.3228 16.5698 10.1807C16.5703 10.0386 16.5149 9.90202 16.4156 9.80038L15.6573 9.04204C15.5557 8.94275 15.4191 8.88737 15.277 8.88785C15.1349 8.88833 14.9987 8.94463 14.8977 9.04461C14.7967 9.14459 14.7391 9.28024 14.7372 9.42232C14.7353 9.56441 14.7893 9.70154 14.8876 9.80417L14.5713 10.1205C14.2597 9.91098 13.9094 9.76586 13.541 9.69367V9.18342C13.6645 9.14461 13.77 9.06288 13.8384 8.95301C13.9068 8.84314 13.9337 8.7124 13.914 8.58447C13.8944 8.45653 13.8296 8.33986 13.7313 8.25558C13.6331 8.1713 13.5079 8.12497 13.3785 8.125H12.6202ZM12.9993 14.1917C12.7717 14.1917 12.5463 14.1468 12.336 14.0597C12.1257 13.9726 11.9347 13.8449 11.7737 13.684C11.6127 13.523 11.4851 13.3319 11.398 13.1217C11.3108 12.9114 11.266 12.686 11.266 12.4583C11.266 12.2307 11.3108 12.0053 11.398 11.795C11.4851 11.5847 11.6127 11.3936 11.7737 11.2327C11.9347 11.0717 12.1257 10.9441 12.336 10.8569C12.5463 10.7698 12.7717 10.725 12.9993 10.725C13.4591 10.725 13.8999 10.9076 14.225 11.2327C14.5501 11.5577 14.7327 11.9986 14.7327 12.4583C14.7327 12.918 14.5501 13.3589 14.225 13.684C13.8999 14.009 13.4591 14.1917 12.9993 14.1917Z" fill="#49454F"/>
<path fill-rule="evenodd" clip-rule="evenodd" d="M20.615 4.77696C18.2096 3.74638 15.6165 3.22642 12.9997 3.25C10.3829 3.22659 7.78977 3.74673 5.38442 4.7775L5.3763 4.7813C5.06479 4.92056 4.80015 5.14684 4.61417 5.43292C4.4285 5.71783 4.33073 6.05106 4.33305 6.39113V12.6214C4.33305 14.2236 4.69001 16.1303 5.82913 17.9324C6.97205 19.7405 8.87871 21.4045 11.911 22.5512C12.6127 22.8157 13.3867 22.8157 14.0885 22.5512C17.1202 21.4061 19.0263 19.7351 20.1692 17.9238C21.3089 16.1184 21.6664 14.2106 21.6664 12.6214V6.39167C21.6686 6.05137 21.5707 5.71792 21.3847 5.43292C21.1989 5.14692 20.9344 4.92065 20.6231 4.7813L20.615 4.77696ZM6.74509 17.3534C5.73813 15.7609 5.41638 14.0671 5.41638 12.6214V6.3895H4.87471L5.41638 6.38571C5.4153 6.25788 5.45213 6.13113 5.52309 6.02225C5.59351 5.91392 5.6948 5.82563 5.81613 5.77038C8.08383 4.79989 10.5283 4.31074 12.9948 4.33388H13.0046C15.4711 4.31074 17.9156 4.79989 20.1833 5.77038C20.3046 5.82563 20.4059 5.91338 20.4758 6.02171C20.5473 6.13113 20.5841 6.25734 20.583 6.38571V12.6208C20.583 14.0525 20.2608 15.7484 19.2533 17.3453C18.249 18.9361 16.5417 20.4663 13.7055 21.5378C13.2505 21.7089 12.7489 21.7089 12.2939 21.5378C9.45559 20.4642 7.74826 18.9405 6.74509 17.3534Z" fill="#49454F"/>
</svg>
