<svg width="26" height="26" viewBox="0 0 26 26" fill="none" xmlns="http://www.w3.org/2000/svg">
<path fill-rule="evenodd" clip-rule="evenodd" d="M10.8333 2.16667C10.977 2.16667 11.1148 2.22374 11.2164 2.32532C11.3179 2.4269 11.375 2.56468 11.375 2.70834V7.22746C11.375 7.58319 11.3049 7.93543 11.1688 8.26407C11.0326 8.5927 10.833 8.8913 10.5815 9.1428L10.309 9.4158C10.1009 9.62377 9.97354 9.89903 9.94984 10.1923C9.92613 10.4856 10.0076 10.7777 10.1796 11.0164C10.3517 11.2551 10.603 11.4248 10.8888 11.4951C11.1745 11.5653 11.4759 11.5316 11.739 11.3999L11.8701 11.3344C12.2208 11.1589 12.6076 11.0675 12.9997 11.0675C13.3919 11.0675 13.7787 11.1589 14.1294 11.3344L14.261 11.3994C14.524 11.5307 14.8252 11.5642 15.1107 11.4938C15.3961 11.4235 15.6473 11.2539 15.8192 11.0155C15.9911 10.777 16.0726 10.4851 16.0491 10.1921C16.0257 9.89901 15.8987 9.62386 15.691 9.4158L15.4185 9.1428C15.167 8.8913 14.9674 8.5927 14.8312 8.26407C14.6951 7.93543 14.625 7.58319 14.625 7.22746V2.70834C14.625 2.56468 14.6821 2.4269 14.7837 2.32532C14.8852 2.22374 15.023 2.16667 15.1667 2.16667C15.3103 2.16667 15.4481 2.22374 15.5497 2.32532C15.6513 2.4269 15.7083 2.56468 15.7083 2.70834V3.63134C19.7757 4.80459 22.75 8.55509 22.75 13C22.75 17.4449 19.7757 21.1954 15.7083 22.3692V23.2917C15.7083 23.4353 15.6513 23.5731 15.5497 23.6747C15.4481 23.7763 15.3103 23.8333 15.1667 23.8333C15.023 23.8333 14.8852 23.7763 14.7837 23.6747C14.6821 23.5731 14.625 23.4353 14.625 23.2917V18.7725C14.625 18.4168 14.6951 18.0646 14.8312 17.7359C14.9674 17.4073 15.167 17.1087 15.4185 16.8572L15.691 16.5842C15.8991 16.3762 16.0265 16.101 16.0502 15.8077C16.0739 15.5144 15.9924 15.2223 15.8204 14.9836C15.6483 14.7449 15.397 14.5752 15.1112 14.505C14.8255 14.4347 14.5241 14.4684 14.261 14.6001L14.1299 14.6656C13.7792 14.8411 13.3924 14.9325 13.0003 14.9325C12.6081 14.9325 12.2213 14.8411 11.8706 14.6656L11.739 14.6006C11.476 14.4693 11.1748 14.4358 10.8893 14.5062C10.6039 14.5765 10.3527 14.7461 10.1808 14.9845C10.0089 15.223 9.92737 15.5149 9.95085 15.8079C9.97434 16.101 10.1013 16.3762 10.309 16.5842L10.5815 16.8572C10.833 17.1087 11.0326 17.4073 11.1688 17.7359C11.3049 18.0646 11.375 18.4168 11.375 18.7725V23.2917C11.375 23.4353 11.3179 23.5731 11.2164 23.6747C11.1148 23.7763 10.977 23.8333 10.8333 23.8333C10.6897 23.8333 10.5519 23.7763 10.4503 23.6747C10.3487 23.5731 10.2917 23.4353 10.2917 23.2917V22.3692C6.22429 21.1954 3.25 17.4455 3.25 13C3.25 8.55509 6.22429 4.80459 10.2917 3.63134V2.70834C10.2917 2.56468 10.3487 2.4269 10.4503 2.32532C10.5519 2.22374 10.6897 2.16667 10.8333 2.16667ZM10.2917 4.76505C6.8315 5.90255 4.33333 9.15959 4.33333 13C4.33333 16.8404 6.8315 20.098 10.2917 21.235V18.7725C10.2916 18.3416 10.1203 17.9283 9.81554 17.6237L9.54254 17.3507C9.15265 16.9607 8.91425 16.4446 8.87 15.8949C8.82575 15.3452 8.97852 14.7977 9.301 14.3504C9.62348 13.903 10.0946 13.585 10.6301 13.4532C11.1656 13.3214 11.7305 13.3844 12.2238 13.631L12.3549 13.6966C12.7611 13.8997 13.2389 13.8997 13.6451 13.6966L13.7762 13.6316C14.2694 13.3854 14.8341 13.3225 15.3693 13.4544C15.9046 13.5863 16.3755 13.9042 16.6978 14.3513C17.0202 14.7985 17.173 15.3457 17.129 15.8952C17.085 16.4447 16.8469 16.9606 16.4575 17.3507L16.1845 17.6237C15.8798 17.9282 15.7086 18.3413 15.7083 18.772V21.235C19.1685 20.0975 21.6667 16.8404 21.6667 13C21.6667 9.15959 19.1685 5.90201 15.7083 4.76505V7.22746C15.7084 7.65841 15.8797 8.07166 16.1845 8.37634L16.4575 8.64934C16.8473 9.03935 17.0857 9.55537 17.13 10.1051C17.1743 10.6548 17.0215 11.2023 16.699 11.6496C16.3765 12.097 15.9054 12.415 15.3699 12.5468C14.8344 12.6786 14.2695 12.6156 13.7762 12.369L13.6451 12.3034C13.4449 12.2031 13.224 12.1509 13 12.1509C12.776 12.1509 12.5551 12.2031 12.3549 12.3034L12.2238 12.3684C11.7306 12.6147 11.1659 12.6775 10.6307 12.5456C10.0954 12.4138 9.62455 12.0958 9.30218 11.6487C8.97981 11.2015 8.82698 10.6543 8.87101 10.1048C8.91505 9.55535 9.15307 9.03944 9.54254 8.64934L9.81554 8.37634C10.1202 8.0718 10.2914 7.65876 10.2917 7.22801V4.76505Z" fill="#49454F"/>
</svg>
